<svg width="18" height="17" viewBox="0 0 18 17" fill="none" xmlns="http://www.w3.org/2000/svg">
<path d="M9.00008 0.199951C4.41675 0.199951 0.666748 3.94162 0.666748 8.54995C0.666748 12.7166 3.71675 16.1749 7.70008 16.7999V10.9666H5.58341V8.54995H7.70008V6.70828C7.70008 4.61662 8.94175 3.46662 10.8501 3.46662C11.7584 3.46662 12.7084 3.62495 12.7084 3.62495V5.68328H11.6584C10.6251 5.68328 10.3001 6.32495 10.3001 6.98328V8.54995H12.6167L12.2417 10.9666H10.3001V16.7999C12.2638 16.4898 14.0519 15.4879 15.3417 13.975C16.6315 12.4621 17.3379 10.538 17.3334 8.54995C17.3334 3.94162 13.5834 0.199951 9.00008 0.199951Z" fill="white"/>
</svg>
