<svg width="62" height="15" viewBox="0 0 62 15" fill="none" xmlns="http://www.w3.org/2000/svg">
<path d="M3.88 1.5V0.779999H4.18C4.16667 0.779999 4.90667 0.793333 6.4 0.82C7.68 0.833333 8.78667 0.833333 9.72 0.82L11.32 0.779999H11.54V1.5V2.22H10.74H9.92V7.1V11.96L9.84 12.2C9.72 12.6667 9.48 13.08 9.12 13.44C8.46667 14.0933 7.52 14.4933 6.28 14.64C5.50667 14.7333 4.76667 14.7467 4.06 14.68C2.79333 14.52 1.9 14.1267 1.38 13.5C1.19333 13.2733 1.06667 13.0067 1 12.7C0.92 12.3933 0.92 12.0667 1 11.72C1.16 11.1067 1.56 10.7 2.2 10.5C2.30667 10.4733 2.48 10.46 2.72 10.46C2.96 10.46 3.14 10.4733 3.26 10.5C3.88667 10.7133 4.28 11.12 4.44 11.72C4.52 12.0267 4.52 12.3533 4.44 12.7C4.36 12.98 4.26667 13.18 4.16 13.3C4.10667 13.38 4.08667 13.42 4.1 13.42C4.18 13.4467 4.42 13.4733 4.82 13.5C5.06 13.5 5.22667 13.4933 5.32 13.48C6.04 13.36 6.48 12.9267 6.64 12.18C6.66667 12.06 6.68667 10.3667 6.7 7.1V2.22H5.3H3.88V1.5ZM13.655 1.5V0.779999H13.915C13.9017 0.779999 14.5417 0.793333 15.835 0.82C16.9417 0.833333 18.0483 0.833333 19.155 0.82L21.055 0.779999H21.315V1.5V2.22H20.235H19.155V4.86V7.48L19.335 7.32C19.2817 7.37333 20.2683 6.49333 22.295 4.68L25.075 2.22H24.495H23.895V1.5V0.779999H24.115C24.1017 0.779999 24.6883 0.793333 25.875 0.82C26.8883 0.833333 27.715 0.833333 28.355 0.82L29.455 0.779999H29.595V1.5V2.22H28.435H27.255L25.095 4.14L22.915 6.08L25.415 9.58L27.915 13.06H28.915H29.915V13.78V14.5H29.715L28.175 14.46C27.2817 14.4467 26.2683 14.4467 25.135 14.46C23.815 14.4867 23.1617 14.5 23.175 14.5H22.915V13.78V13.06H23.555L24.215 13.04L22.435 10.58L20.635 8.1L19.895 8.76L19.155 9.4V11.24V13.06H20.235H21.315V13.78V14.5H21.055C21.0683 14.5 20.4283 14.4867 19.135 14.46C18.0283 14.4467 16.9217 14.4467 15.815 14.46L13.915 14.5H13.655V13.78V13.06H14.735H15.815V7.64V2.22H14.735H13.655V1.5ZM38.8623 0.579999C39.3023 0.553333 39.8557 0.559999 40.5223 0.599999C42.3357 0.8 43.7957 1.44667 44.9023 2.54C45.9823 3.62 46.629 5.04 46.8423 6.8C46.8957 7.33333 46.8957 7.91333 46.8423 8.54C46.8423 8.56667 46.8423 8.59333 46.8423 8.62C46.6423 10.2867 46.029 11.6467 45.0023 12.7C44.509 13.18 43.949 13.58 43.3223 13.9C42.4957 14.3 41.5623 14.56 40.5223 14.68C39.9623 14.7333 39.3357 14.7333 38.6423 14.68C38.6023 14.68 38.569 14.68 38.5423 14.68C36.649 14.4533 35.1623 13.7933 34.0823 12.7C33.0423 11.66 32.4223 10.3 32.2223 8.62C32.169 8.11333 32.169 7.54 32.2223 6.9C32.2223 6.86 32.2223 6.82667 32.2223 6.8C32.329 6 32.4957 5.32 32.7223 4.76C33.3223 3.22667 34.329 2.11333 35.7423 1.42C36.649 0.953333 37.689 0.673333 38.8623 0.579999ZM39.9423 1.88C38.8223 1.76 37.869 2.06 37.0823 2.78C36.8957 2.95333 36.729 3.14667 36.5823 3.36C36.2223 3.90667 35.9757 4.58667 35.8423 5.4C35.709 6.37333 35.689 7.53333 35.7823 8.88C35.7957 9 35.809 9.11333 35.8223 9.22C35.969 10.7533 36.449 11.8667 37.2623 12.56C38.1423 13.2933 39.1423 13.54 40.2623 13.3C40.8357 13.18 41.349 12.9333 41.8023 12.56C42.6157 11.8667 43.0957 10.7533 43.2423 9.22C43.3757 8.1 43.3823 6.91333 43.2623 5.66C43.249 5.56667 43.2357 5.48 43.2223 5.4C43.129 4.82667 42.969 4.29333 42.7423 3.8C42.1823 2.66667 41.249 2.02667 39.9423 1.88ZM48.9675 1.5V0.779999H49.2275C49.2142 0.779999 49.8542 0.793333 51.1475 0.82C52.2542 0.833333 53.4408 0.833333 54.7075 0.82L56.8875 0.779999H57.1675V1.5V2.22H55.8275H54.4675V7.64V13.06H55.3275C55.9408 13.06 56.3075 13.0467 56.4275 13.02C56.9742 12.9533 57.4675 12.7733 57.9075 12.48C58.7208 11.92 59.2342 10.9867 59.4475 9.68C59.5542 9.09333 59.6075 8.71333 59.6075 8.54C59.6075 8.52667 59.8475 8.52 60.3275 8.52H61.0475V8.62C61.0208 8.68667 60.9208 9.64667 60.7475 11.5C60.5475 13.4067 60.4408 14.3733 60.4275 14.4V14.5H54.6875H48.9675V13.78V13.06H50.0475H51.1275V7.64V2.22H50.0475H48.9675V1.5Z" fill="white"/>
</svg>
