<svg width="75" height="26" viewBox="0 0 75 26" fill="currentColor" xmlns="http://www.w3.org/2000/svg">
  <path
    d="M4.456 3.4V2.536H4.816C4.8 2.536 5.688 2.552 7.48 2.584C9.016 2.6 10.344 2.6 11.464 2.584L13.384 2.536H13.648V3.4V4.264H12.688H11.704V10.12V15.952L11.608 16.24C11.464 16.8 11.176 17.296 10.744 17.728C9.96 18.512 8.824 18.992 7.336 19.168C6.408 19.28 5.52 19.296 4.672 19.216C3.152 19.024 2.08 18.552 1.456 17.8C1.232 17.528 1.08 17.208 1 16.84C0.904 16.472 0.904 16.08 1 15.664C1.192 14.928 1.672 14.44 2.44 14.2C2.568 14.168 2.776 14.152 3.064 14.152C3.352 14.152 3.568 14.168 3.712 14.2C4.464 14.456 4.936 14.944 5.128 15.664C5.224 16.032 5.224 16.424 5.128 16.84C5.032 17.176 4.92 17.416 4.792 17.56C4.728 17.656 4.704 17.704 4.72 17.704C4.816 17.736 5.104 17.768 5.584 17.8C5.872 17.8 6.072 17.792 6.184 17.776C7.048 17.632 7.576 17.112 7.768 16.216C7.8 16.072 7.824 14.04 7.84 10.12V4.264H6.16H4.456V3.4ZM16.186 3.4V2.536H16.498C16.482 2.536 17.25 2.552 18.802 2.584C20.13 2.6 21.458 2.6 22.786 2.584L25.066 2.536H25.378V3.4V4.264H24.082H22.786V7.432V10.576L23.002 10.384C22.938 10.448 24.122 9.392 26.554 7.216L29.89 4.264H29.194H28.474V3.4V2.536H28.738C28.722 2.536 29.426 2.552 30.85 2.584C32.066 2.6 33.058 2.6 33.826 2.584L35.146 2.536H35.314V3.4V4.264H33.922H32.506L29.914 6.568L27.298 8.896L30.298 13.096L33.298 17.272H34.498H35.698V18.136V19H35.458L33.61 18.952C32.538 18.936 31.322 18.936 29.962 18.952C28.378 18.984 27.594 19 27.61 19H27.298V18.136V17.272H28.066L28.858 17.248L26.722 14.296L24.562 11.32L23.674 12.112L22.786 12.88V15.088V17.272H24.082H25.378V18.136V19H25.066C25.082 19 24.314 18.984 22.762 18.952C21.434 18.936 20.106 18.936 18.778 18.952L16.498 19H16.186V18.136V17.272H17.482H18.778V10.768V4.264H17.482H16.186V3.4ZM46.4348 2.296C46.9628 2.264 47.6268 2.272 48.4268 2.32C50.6028 2.56 52.3548 3.336 53.6828 4.648C54.9788 5.944 55.7548 7.648 56.0108 9.76C56.0748 10.4 56.0748 11.096 56.0108 11.848C56.0108 11.88 56.0108 11.912 56.0108 11.944C55.7708 13.944 55.0348 15.576 53.8028 16.84C53.2108 17.416 52.5388 17.896 51.7868 18.28C50.7948 18.76 49.6748 19.072 48.4268 19.216C47.7548 19.28 47.0028 19.28 46.1708 19.216C46.1228 19.216 46.0828 19.216 46.0508 19.216C43.7788 18.944 41.9948 18.152 40.6988 16.84C39.4508 15.592 38.7068 13.96 38.4668 11.944C38.4028 11.336 38.4028 10.648 38.4668 9.88C38.4668 9.832 38.4668 9.792 38.4668 9.76C38.5948 8.8 38.7948 7.984 39.0668 7.312C39.7868 5.472 40.9948 4.136 42.6908 3.304C43.7788 2.744 45.0268 2.408 46.4348 2.296ZM47.7308 3.856C46.3868 3.712 45.2428 4.072 44.2988 4.936C44.0748 5.144 43.8748 5.376 43.6988 5.632C43.2668 6.288 42.9708 7.104 42.8108 8.08C42.6508 9.248 42.6268 10.64 42.7388 12.256C42.7548 12.4 42.7708 12.536 42.7868 12.664C42.9628 14.504 43.5388 15.84 44.5148 16.672C45.5708 17.552 46.7708 17.848 48.1148 17.56C48.8028 17.416 49.4188 17.12 49.9628 16.672C50.9388 15.84 51.5148 14.504 51.6908 12.664C51.8508 11.32 51.8588 9.896 51.7148 8.392C51.6988 8.28 51.6828 8.176 51.6668 8.08C51.5548 7.392 51.3628 6.752 51.0908 6.16C50.4188 4.8 49.2988 4.032 47.7308 3.856ZM58.561 3.4V2.536H58.873C58.857 2.536 59.625 2.552 61.177 2.584C62.505 2.6 63.929 2.6 65.449 2.584L68.065 2.536H68.401V3.4V4.264H66.793H65.161V10.768V17.272H66.193C66.929 17.272 67.369 17.256 67.513 17.224C68.169 17.144 68.761 16.928 69.289 16.576C70.265 15.904 70.881 14.784 71.137 13.216C71.265 12.512 71.329 12.056 71.329 11.848C71.329 11.832 71.617 11.824 72.193 11.824H73.057V11.944C73.025 12.024 72.905 13.176 72.697 15.4C72.457 17.688 72.329 18.848 72.313 18.88V19H65.425H58.561V18.136V17.272H59.857H61.153V10.768V4.264H59.857H58.561V3.4Z" />
</svg>