<svg width="20" height="21" viewBox="0 0 20 21" fill="none" xmlns="http://www.w3.org/2000/svg">
<path d="M8.33341 13L12.6584 10.5L8.33341 7.99996V13ZM17.9667 6.47496C18.0751 6.86663 18.1501 7.39163 18.2001 8.05829C18.2584 8.72496 18.2834 9.29996 18.2834 9.79996L18.3334 10.5C18.3334 12.325 18.2001 13.6666 17.9667 14.525C17.7584 15.275 17.2751 15.7583 16.5251 15.9666C16.1334 16.075 15.4167 16.15 14.3167 16.2C13.2334 16.2583 12.2417 16.2833 11.3251 16.2833L10.0001 16.3333C6.50841 16.3333 4.33341 16.2 3.47508 15.9666C2.72508 15.7583 2.24175 15.275 2.03341 14.525C1.92508 14.1333 1.85008 13.6083 1.80008 12.9416C1.74175 12.275 1.71675 11.7 1.71675 11.2L1.66675 10.5C1.66675 8.67496 1.80008 7.33329 2.03341 6.47496C2.24175 5.72496 2.72508 5.24163 3.47508 5.03329C3.86675 4.92496 4.58341 4.84996 5.68341 4.79996C6.76675 4.74163 7.75841 4.71663 8.67508 4.71663L10.0001 4.66663C13.4917 4.66663 15.6667 4.79996 16.5251 5.03329C17.2751 5.24163 17.7584 5.72496 17.9667 6.47496Z" fill="white"/>
</svg>
