<svg width="20" height="21" viewBox="0 0 20 21" fill="none" xmlns="http://www.w3.org/2000/svg">
<path d="M10.0001 2.19995C5.41675 2.19995 1.66675 5.94162 1.66675 10.55C1.66675 14.7166 4.71675 18.1749 8.70008 18.7999V12.9666H6.58341V10.55H8.70008V8.70828C8.70008 6.61662 9.94175 5.46662 11.8501 5.46662C12.7584 5.46662 13.7084 5.62495 13.7084 5.62495V7.68328H12.6584C11.6251 7.68328 11.3001 8.32495 11.3001 8.98328V10.55H13.6167L13.2417 12.9666H11.3001V18.7999C13.2638 18.4898 15.0519 17.4879 16.3417 15.975C17.6315 14.4621 18.3379 12.538 18.3334 10.55C18.3334 5.94162 14.5834 2.19995 10.0001 2.19995Z" fill="white"/>
</svg>
