<svg width="20" height="21" viewBox="0 0 20 21" fill="none" xmlns="http://www.w3.org/2000/svg">
<path d="M6.50008 2.16663H13.5001C16.1667 2.16663 18.3334 4.33329 18.3334 6.99996V14C18.3334 15.2818 17.8242 16.5112 16.9178 17.4176C16.0113 18.3241 14.782 18.8333 13.5001 18.8333H6.50008C3.83341 18.8333 1.66675 16.6666 1.66675 14V6.99996C1.66675 5.71808 2.17597 4.4887 3.0824 3.58228C3.98882 2.67585 5.2182 2.16663 6.50008 2.16663ZM6.33341 3.83329C5.53777 3.83329 4.7747 4.14936 4.21209 4.71197C3.64949 5.27458 3.33341 6.03764 3.33341 6.83329V14.1666C3.33341 15.825 4.67508 17.1666 6.33341 17.1666H13.6667C14.4624 17.1666 15.2255 16.8506 15.7881 16.2879C16.3507 15.7253 16.6667 14.9623 16.6667 14.1666V6.83329C16.6667 5.17496 15.3251 3.83329 13.6667 3.83329H6.33341ZM14.3751 5.08329C14.6513 5.08329 14.9163 5.19304 15.1117 5.38839C15.307 5.58374 15.4167 5.84869 15.4167 6.12496C15.4167 6.40123 15.307 6.66618 15.1117 6.86153C14.9163 7.05688 14.6513 7.16663 14.3751 7.16663C14.0988 7.16663 13.8339 7.05688 13.6385 6.86153C13.4432 6.66618 13.3334 6.40123 13.3334 6.12496C13.3334 5.84869 13.4432 5.58374 13.6385 5.38839C13.8339 5.19304 14.0988 5.08329 14.3751 5.08329ZM10.0001 6.33329C11.1052 6.33329 12.165 6.77228 12.9464 7.55368C13.7278 8.33508 14.1667 9.39489 14.1667 10.5C14.1667 11.605 13.7278 12.6648 12.9464 13.4462C12.165 14.2276 11.1052 14.6666 10.0001 14.6666C8.89501 14.6666 7.8352 14.2276 7.0538 13.4462C6.2724 12.6648 5.83341 11.605 5.83341 10.5C5.83341 9.39489 6.2724 8.33508 7.0538 7.55368C7.8352 6.77228 8.89501 6.33329 10.0001 6.33329ZM10.0001 7.99996C9.33704 7.99996 8.70115 8.26335 8.23231 8.73219C7.76347 9.20103 7.50008 9.83692 7.50008 10.5C7.50008 11.163 7.76347 11.7989 8.23231 12.2677C8.70115 12.7366 9.33704 13 10.0001 13C10.6631 13 11.299 12.7366 11.7678 12.2677C12.2367 11.7989 12.5001 11.163 12.5001 10.5C12.5001 9.83692 12.2367 9.20103 11.7678 8.73219C11.299 8.26335 10.6631 7.99996 10.0001 7.99996Z" fill="white"/>
</svg>
